<svg xmlns="http://www.w3.org/2000/svg" width="400" height="400" viewBox="0 0 1024 1024">
    <defs>
        <style>
            .b {
                fill: #fed60b;
            }

            .c {
                fill: #ddb800;
            }

            .d {
                fill: #c4a300;
            }

            .e {
                fill: #857000;
            }

            .f {
                fill: #feea8a;
            }
        </style>
    </defs>
    <path
        d="M512.03461,128.03336V64.29671H768.00909v63.69412l-.02136.02151-64.05664.13717-63.95477.01524-64.00446-.00078q-32.00528-.10133-64.01056-.20267Z" />
    <path
        d="M895.976,256.02466h63.70337V511.96521H895.96674l.072.07349q-.01932-82.54459-.04578-165.08918c-.00439-8.97387-.10217-17.94769-.15686-26.92154q.09714-32.02913.19421-64.05825Z" />
    <path
        d="M127.99083,768.00909H64.28149V512.03461h63.7519l-.07206-.07337q.10135,32.00547.20267,64.01093.00038,32.00217.00076,64.00427-.00759,31.97754-.01516,63.955l-.13724,64.05627Z" />
    <path
        d="M511.96521,895.96674V959.676H256.02466V895.97589l-.05493.05438q32.02143-.09732,64.04287-.19452c11.28577.05475,22.5716.16309,33.85733.15381q47.06227-.03863,94.12449-.15582,32.02212.10254,64.04428.205Z" />
    <path d="M384.03479,192.03326v-63.9999H512.03461l-.07331-.07206q.00385,32.0036.00763,64.00718L383.9613,191.9613Z" />
    <path
        d="M128.03339,512.03461V384.03479h63.9999l-.072-.07349q.10133,32.00538.20265,64.01072-.09566,31.985-.19131,63.97012-32.00565.00962-64.01133.0191Z" />
    <path d="M895.96674,511.96521v128h-64l.072.07349q.00759-63.9928.01526-127.98554l63.98474-.01446Z" />
    <path
        d="M639.96521,831.96674v64h-128l.07349.072q-.00613-31.94953-.01215-63.899,31.98394-.15289,63.96783-.30585l64.04432.2049Z" />
    <path d="M768.00909,127.99083h64v64l-.02136.02151-64.02221.02051q.01107-32.01024.02221-64.02051Z" />
    <path
        d="M832.00909,191.99083H895.976v64.03383l.05426-.05493q-32.01645.05067-64.03283.10138-.00477-32.02932-.00971-64.05877Z" />
    <path
        d="M256.03479,320.03329V256.02466h63.98926l-.05429-.05493q.0016,31.96668.00323,63.93338-32.00583.02907-64.01169.05819Z" />
    <path d="M767.96521,703.96674v63.99847H703.96674l.072.07349v-64h64Z" />
    <path
        d="M191.99083,832.00909h-64v-64l.02151-.02136q32.0103-.01116,64.02053-.02221-.0103,32.01113-.02053,64.02221Z" />
    <path
        d="M320.02405,256.02466v-63.9914h64.01074l-.07349-.072q-.029,32.00565-.05786,64.0113-31.96683-.00142-63.93368-.00287Z" />
    <path
        d="M831.96674,639.96521v64.00153H767.96521l.07349.072q.02417-31.97763.0484-63.9552,31.9758-.02244,63.9516-.0448Z" />
    <path d="M703.96674,767.96521v64.00153H639.96521l.07349.072q.02225-31.97571.04461-63.95148l63.95539-.04852Z" />
    <path d="M256.02466,895.97589H191.99083v-63.9668l.02151-.02136,64.05864.00971-.10125,64.03277Z" />
    <path
        d="M192.03329,384.03479v-64.0015h64.0015l-.07349-.072q-.00763,31.99273-.01532,63.98551-31.99231.00723-63.98466.01449Z" />
    <path class="b"
        d="M511.96893,191.96846q-.00384-32.00358-.00763-64.00716,32.00529.10136,64.0105.20267-.01,31.89519-.01965,63.79083-31.96573.03294-63.93237.065Z" />
    <path class="c"
        d="M575.95178,191.95436q.01-31.89519.02-63.79039l64.00452.00078q-.06838,31.828-.13587,63.65709Q607.89706,191.88927,575.95178,191.95436Z" />
    <path class="d"
        d="M639.83954,191.82068l.13678-63.65593q31.97736-.00762,63.95477-.01526l.00458,63.7-63.84052.24559Z" />
    <path class="e"
        d="M703.93567,191.84949l-.00458-63.7q32.02836-.06855,64.05664-.13715-.01107,32.01026-.02215,64.02047l.06829-.06679Q735.98475,191.90774,703.93567,191.84949Z" />
    <path class="b"
        d="M896.0387,512.0387l-63.98474.01446-.08466-.08386q-.01519-64.04622-.03046-128.09241l.22522-63.85077q31.83609.001,63.672.00186c.05469,8.97385.15247,17.94767.15686,26.92154Q896.03348,429.49412,896.0387,512.0387Z" />
    <path class="c"
        d="M895.83606,320.028q-31.836-.00092-63.672-.00186-.048-32.01384-.09607-64.02771l-.07055.07257q32.01645-.05058,64.03283-.10125Q895.93324,287.99886,895.83606,320.028Z" />
    <path class="b"
        d="M127.96133,511.96124q32.00568-.00951,64.01136-.0191l.01684.11133-.03515,63.89831q-31.89519.01017-63.79038.02039Q128.06268,543.9667,127.96133,511.96124Z" />
    <path class="c"
        d="M128.164,575.97217q31.89519-.01026,63.7908-.02-.0663,31.9443-.1335,63.88763-31.82826.0683-63.65654.13666Q128.16439,607.97427,128.164,575.97217Z" />
    <path class="d"
        d="M128.16476,639.97644q31.82828-.06839,63.65772-.13574l.27269.25439q-.12282,31.92022-.24565,63.84046-31.85-.002-63.69994-.00409Q128.15715,671.95392,128.16476,639.97644Z" />
    <path class="e"
        d="M128.1496,703.93146q31.84994.002,63.7.00409.05828,32.04913.11648,64.09832l.0669-.06842q-32.0103.01117-64.02057.02228Z" />
    <path class="f"
        d="M447.99442,895.83374q-47.06223.08313-94.12449.15582c-11.28573.00928-22.57156-.09906-33.85708-.15381q-.00023-31.83571-.00077-63.67144l63.961-.31073q32.03028.09,64.06058.18005l-.05362-.0531Q447.98724,863.90716,447.99442,895.83374Z" />
    <path class="c"
        d="M320.01187,832.16431q.00065,31.83571.001,63.67144-32.02181.09723-64.04312.19452l.10125-64.03283-.07257.07061Q288.00515,832.11622,320.01187,832.16431Z" />
    <path class="b"
        d="M447.99442,895.8338q-.0072-31.92663-.01435-63.85321,32.02332.07956,64.04648.15906.006,31.94952.01215,63.899Z" />
    <path class="b"
        d="M383.90344,255.9726q.02889-32.00565.05786-64.0113l128.00763.00718.05085.05137q-.11316,31.87652-.22559,63.75371-31.87725.14306-63.75559.28476Q415.971,256.01546,383.90344,255.9726Z" />
    <path class="b"
        d="M191.96132,383.9613q31.99233-.00727,63.98466-.01449l.08478.08395q-.03666,31.96377-.0733,63.92749-31.8967.00691-63.79347.01377Q192.06266,415.96664,191.96132,383.9613Z" />
    <path class="c"
        d="M192.164,447.972q31.89677-.00687,63.794-.01331l.08.07925q-.10839,31.90092-.21676,63.80182l-63.83167.21369-.01684-.11133Q192.06832,479.95709,192.164,447.972Z" />
    <path class="b"
        d="M832.0387,640.0387q-31.9758.02233-63.95166.0448l-.21228-.20862q.04284-31.90219.08545-63.80475.1268-31.94.25366-63.87994,31.87766-.11042,63.75543-.22089l.08466.08386Q832.04627,576.046,832.0387,640.0387Z" />
    <path class="f"
        d="M512.02655,832.13965q-32.02323-.07947-64.04648-.15906l.0535.053q-.01089-31.9347-.02167-63.86926l63.96112-.31073q32.02807.06133,64.05609.12262-.01729,31.92882-.03473,63.8576Q544.01043,831.9867,512.02655,832.13965Z" />
    <path class="b"
        d="M575.99438,831.8338q.0174-31.92884.03449-63.85785l-.07233.04737q31.959-.07435,63.918-.14856l.20868.21246q-.02225,31.97571-.04455,63.95148Z" />
    <path class="e"
        d="M831.98773,192.01234q.00486,32.02941.00971,64.05874l.07061-.07267-64.05456-.012q.01024-32.0102.02038-64.0204l-.06829.06679Q799.97662,192.02262,831.98773,192.01234Z" />
    <path class="c"
        d="M383.90344,255.9726q32.06759.04284,64.13483.08514-.09975,31.881-.19782,63.76419c-19.45263.06015-38.90744.25562-58.3587.07388-4.39166-.041-5.63187,1.13312-5.58795,5.56293.19287,19.4519-.00076,38.90765-.05335,58.36322q-31.90035.10917-63.80249.216l-.07956-.08032q.00734-32.02725.01459-64.05453-.0016-31.9667-.00323-63.93338Q351.93659,255.97114,383.90344,255.9726Z" />
    <path class="b"
        d="M319.973,319.90311q-.00727,32.02725-.01413,64.055-31.96358.03686-63.9281.07263l-.08478-.08395q.00765-31.99274.01532-63.98551Q287.96713,319.93219,319.973,319.90311Z" />
    <path class="b"
        d="M704.0387,768.0387l-63.95533.04852-.20861-.21234q.04331-31.902.08624-63.80445.12625-31.94017.25262-63.88037,31.92838-.11462,63.85681-.22912,31.9021-.043,63.80414-.08618l.21247.20874-.04834,63.9552h-64Z" />
    <path class="e"
        d="M256.071,831.99744l-64.05864-.00971q.01026-32.01105.02053-64.02221l-.06685.06835q32.0102-.01015,64.02043-.02038.006,32.02725.012,64.05456Z" />
    <path class="d"
        d="M511.79358,255.77289q.11307-31.87651.2262-63.753,31.96645-.03231,63.93243-.065,31.94412-.06633,63.88824-.133l.25464.27327q-.03378,31.96591-.0675,63.93181l-127.9126.08767Z" />
    <path
        d="M640.02759,256.02692q.03378-31.96592.0675-63.93181l63.84058-.24559q32.04913.0582,64.0982.1165-.01015,32.0102-.02038,64.0204l-.02277.02289L639.98,255.97992Z" />
    <path
        d="M768.01349,255.98642l64.0545.012q.04808,32.01384.09607,64.02771l-.22522,63.85077q-32.00179.06885-64.00372.13779.02765-64.00265.0556-128.00537Z" />
    <path class="c"
        d="M767.9353,384.01465q32.00181-.06889,64.00354-.13776.0153,64.04622.03046,128.09241-31.87774.11042-63.75549.22089l-.31238-.28852.11133-127.98141Z" />
    <path class="d"
        d="M191.98953,512.05347q31.91583-.10684,63.83283-.21277l.27282.25433q-.04884,63.992-.09765,127.984l.08017-.08191-63.98253.098-.27269-.25439q.0652-31.94494.13232-63.88849Q191.97174,544.0024,191.98953,512.05347Z" />
    <path
        d="M192.09517,640.09509l63.98259-.098q-.03416,63.99683-.06845,127.99359l-.02289.02277q-32.0102.01024-64.02039.02038-.05821-32.04912-.11648-64.09832Q191.97234,672.01533,192.09517,640.09509Z" />
    <path
        d="M255.99841,832.06805q-.00594-32.02725-.012-64.05456l.02286-.02277q64.00858.018,128.01721.03583l-.06064-.05939q.00357,31.9432.00717,63.88642l-63.961.31073Q288.005,832.11615,255.99841,832.06805Z" />
    <path class="c"
        d="M383.97305,831.85358q-.00362-31.9432-.00717-63.88642,32.023.09852,64.046.19715.0108,31.93459.02167,63.86926Z" />
    <path class="d"
        d="M447.83954,319.82077q.09919-31.88178.19873-63.763,31.87857-.14118,63.75592-.28418l.3208.341q-.059,31.98157-.11786,63.96311l.08191-.08017-63.98386.0975Z" />
    <path class="c"
        d="M256.03076,384.03076q31.96426-.036,63.9281-.07263l.07862.07935q-.10872,31.90053-.2165,63.802l-63.783.19848-.08-.07925Q255.99388,415.99427,256.03076,384.03076Z" />
    <path class="d"
        d="M256.038,448.038l63.783-.19848.27417.25555q-.0488,31.992-.09765,63.984l.08154-.08148q-31.99191.0487-63.98386.09747l-.27282-.25433Q255.929,479.93842,256.038,448.038Z" />
    <path class="c"
        d="M768.21387,512.19019q-.1269,31.94-.25342,63.87976-31.90155.03524-63.80359.07068l-.26117-.24469q.0585-31.9878.11707-63.97565l-.09247.09241q31.99053-.05548,63.98114-.11109Z" />
    <path class="f"
        d="M704.15686,576.14063q31.90191-.03545,63.80359-.07068-.043,31.90274-.08569,63.80493-31.90238.04293-63.80445.08642Q704.11344,608.05125,704.15686,576.14063Z" />
    <path
        d="M448.0119,768.16431q-32.023-.09861-64.046-.19715l.06064.05939V703.93219H512.015q-.021,31.96069-.042,63.92139Z" />
    <path class="c"
        d="M511.973,767.85358q.021-31.96069.042-63.92157l-.09472.08075,63.9754-.11682.24469.26116-.18384,63.86622.07233-.04737Q544.00115,767.915,511.973,767.85358Z" />
    <path class="f"
        d="M575.95654,768.02332l.18384-63.86634q31.91034-.04339,63.82062-.08655-.043,31.90229-.08624,63.80445Q607.91543,767.949,575.95654,768.02332Z" />
    <path class="d"
        d="M383.83954,383.82077c.0535-19.45438.24713-38.91013.05426-58.362-.04392-4.42981,1.19629-5.60394,5.58795-5.56293,19.45126.18174,38.90607-.01373,58.3587-.07388l.25473.2731q-.04884,31.992-.09765,63.984l.08151-.08148q-31.99191.04875-63.98386.09747Z" />
    <path class="d"
        d="M319.821,447.83948q.108-31.90123.2165-63.802,31.90242-.10671,63.803-.21555l.25476.27307q-.04884,31.992-.09765,63.984l.08148-.08151-63.98386.0975Z" />
    <path class="c"
        d="M704.15686,576.14063q-.04331,31.91043-.08655,63.82061-31.92819.11408-63.85779.228l-.31109-.28754.11133-63.98138-.09247.09247,63.9754-.11682Z" />
    <path class="c"
        d="M639.961,704.07043q-31.91034.04322-63.82062.08655l-.24469-.261q.0585-31.9878.11707-63.97565l-.09247.09247q31.99053-.05557,63.98114-.11109l.31109.28754Q640.08782,672.13068,639.961,704.07043Z" />
    <path d="M511.99713,320.0777q.059-31.98158.11786-63.96311l127.91266-.08767-.04767-.047V320.0777Z" />
    <path d="M703.92029,512.0127V383.92026h64.09247l-.11133,127.98135Q735.91089,511.95719,703.92029,512.0127Z" />
    <path d="M320.079,511.99756V640.079H255.99753q.04879-63.992.09765-127.984Q288.08711,512.04624,320.079,511.99756Z" />
    <path d="M512.079,319.99753V384.079H447.99753q.0488-31.992.09765-63.984Z" />
    <path d="M384.079,447.99753V512.079H319.9975q.04884-31.992.09765-63.984Z" />
    <path d="M639.92029,576.01276V511.92029h64.09247q-.05851,31.98779-.11707,63.97565Z" />
    <path d="M511.92029,704.01276V639.92029h64.09247q-.05851,31.98779-.11707,63.97565Z" />
    <path d="M448.079,383.99756V448.079H383.99756q.04879-31.992.09765-63.984Q416.08709,384.04633,448.079,383.99756Z" />
    <path d="M575.92029,640.01276V575.92029h64.09247l-.11133,63.98138Q607.91089,639.95716,575.92029,640.01276Z" />
</svg>